<?xml version="1.0" standalone="no"?>
<!DOCTYPE svg PUBLIC "-//W3C//DTD SVG 20010904//EN"
 "http://www.w3.org/TR/2001/REC-SVG-20010904/DTD/svg10.dtd">
<svg version="1.0" xmlns="http://www.w3.org/2000/svg"
 width="347.000000pt" height="347.000000pt" viewBox="0 0 347.000000 347.000000"
 preserveAspectRatio="xMidYMid meet">
<metadata>
Created by potrace 1.14, written by Peter Selinger 2001-2017
</metadata>
<g transform="translate(0.000000,347.000000) scale(0.100000,-0.100000)"
fill="#000000" stroke="none">
<path d="M1415 2680 c-125 -58 -181 -223 -120 -353 34 -70 76 -109 152 -141
120 -50 256 -30 337 49 140 136 114 344 -52 418 -103 46 -248 59 -317 27z"/>
<path d="M2978 1947 c-25 -23 -71 -80 -102 -127 -91 -140 -165 -219 -275 -297
-36 -26 -120 -86 -186 -134 -114 -83 -199 -125 -335 -167 -19 -6 -51 -16 -70
-23 -19 -6 -153 -15 -297 -20 -270 -9 -342 -16 -498 -43 -140 -24 -214 -51
-280 -99 -62 -45 -205 -184 -205 -199 0 -4 -16 -29 -37 -55 -61 -81 -83 -152
-58 -192 9 -15 16 -50 19 -91 2 -32 5 -35 31 -35 28 0 32 5 51 61 34 100 76
151 230 279 136 114 233 133 724 145 l335 8 103 31 c192 58 280 100 427 205
55 39 120 84 145 100 126 80 278 238 389 405 61 93 71 115 71 163 0 41 -2 44
-55 78 -30 19 -55 38 -55 43 0 17 -28 4 -72 -36z"/>
</g>
</svg>
